<svg xmlns="http://www.w3.org/2000/svg" viewBox="0 0 100 130">
  <defs>
    <linearGradient id="gradBlue" x1="0%" y1="100%" x2="100%" y2="0%">
      <stop offset="0%" stop-color="#0b4e85" />
      <stop offset="100%" stop-color="#2a9df4" />
    </linearGradient>
    <linearGradient id="gradTeal" x1="0%" y1="100%" x2="0%" y2="0%">
      <stop offset="0%" stop-color="#0f3a5d" />
      <stop offset="100%" stop-color="#4ecdc4" />
    </linearGradient>
  </defs>
  <path
    d="M 50 5 C 30 30, 0 60, 5 90 C 10 120, 45 135, 70 120 C 50 125, 20 110, 20 85 C 20 55, 45 30, 50 5 Z"
    fill="url(#gradBlue)"
  />
  <path
    d="M 50 5 C 70 40, 95 70, 85 100 C 80 115, 65 122, 55 122 C 75 115, 80 95, 75 80 C 65 55, 55 25, 50 5 Z"
    fill="url(#gradTeal)"
  />
</svg>
